HIERARCHY
ROOT Yihan_28_06:Solving:Hips
{
	OFFSET 0.000000 0.000000 0.000000
	CHANNELS 6 Xposition Yposition Zposition Xrotation Yrotation Zrotation
	JOINT Yihan_28_06:Solving:Spine
	{
		OFFSET 0.000000 -10.933681 1.754050
		CHANNELS 6 Xposition Yposition Zposition Xrotation Yrotation Zrotation
		JOINT Yihan_28_06:Solving:Spine1
		{
			OFFSET 0.000000 -9.267541 1.634120
			CHANNELS 6 Xposition Yposition Zposition Xrotation Yrotation Zrotation
			JOINT Yihan_28_06:Solving:Spine2
			{
				OFFSET 0.000000 -9.374699 0.820182
				CHANNELS 6 Xposition Yposition Zposition Xrotation Yrotation Zrotation
				JOINT Yihan_28_06:Solving:Spine3
				{
					OFFSET 0.000000 -9.410507 0.000000
					CHANNELS 6 Xposition Yposition Zposition Xrotation Yrotation Zrotation
					JOINT Yihan_28_06:Solving:Neck
					{
						OFFSET 0.000000 -12.099224 -1.209920
						CHANNELS 6 Xposition Yposition Zposition Xrotation Yrotation Zrotation
						JOINT Yihan_28_06:Solving:Neck1
						{
							OFFSET 0.000000 -7.349789 -0.643021
							CHANNELS 6 Xposition Yposition Zposition Xrotation Yrotation Zrotation
							JOINT Yihan_28_06:Solving:Head
							{
								OFFSET 0.000000 -7.265778 -1.281152
								CHANNELS 6 Xposition Yposition Zposition Xrotation Yrotation Zrotation
								JOINT Yihan_28_06:Solving:HeadEnd
								{
									OFFSET 0.000000 -9.728081 0.000002
									CHANNELS 6 Xposition Yposition Zposition Xrotation Yrotation Zrotation
									End Site
									{
										OFFSET 0.000000 -9.728081 0.000002
									}
								}
							}
						}
					}
					JOINT Yihan_28_06:Solving:RightShoulder
					{
						OFFSET 0.000000 -8.642303 -5.270916
						CHANNELS 6 Xposition Yposition Zposition Xrotation Yrotation Zrotation
						JOINT Yihan_28_06:Solving:RightArm
						{
							OFFSET -17.619331 -0.000004 0.000000
							CHANNELS 6 Xposition Yposition Zposition Xrotation Yrotation Zrotation
							JOINT Yihan_28_06:Solving:RightForeArm
							{
								OFFSET -29.732449 -0.000008 0.000000
								CHANNELS 6 Xposition Yposition Zposition Xrotation Yrotation Zrotation
								JOINT Yihan_28_06:Solving:RightHand
								{
									OFFSET -23.617275 -0.000008 0.000000
									CHANNELS 6 Xposition Yposition Zposition Xrotation Yrotation Zrotation
									JOINT Yihan_28_06:Solving:RightHandThumb1
									{
										OFFSET -3.546165 2.953053 -2.636890
										CHANNELS 6 Xposition Yposition Zposition Xrotation Yrotation Zrotation
										End Site
										{
											OFFSET -5.198463 0.000000 -5.246530
										}
									}
									JOINT Yihan_28_06:Solving:RightHandMiddle1
									{
										OFFSET -9.456436 -0.000004 0.060618
										CHANNELS 6 Xposition Yposition Zposition Xrotation Yrotation Zrotation
										End Site
										{
											OFFSET -7.385803 -0.000004 0.000000
										}
									}
								}
							}
						}
					}
					JOINT Yihan_28_06:Solving:LeftShoulder
					{
						OFFSET 0.000000 -8.642303 -5.270916
						CHANNELS 6 Xposition Yposition Zposition Xrotation Yrotation Zrotation
						JOINT Yihan_28_06:Solving:LeftArm
						{
							OFFSET 17.619331 -0.000004 0.000000
							CHANNELS 6 Xposition Yposition Zposition Xrotation Yrotation Zrotation
							JOINT Yihan_28_06:Solving:LeftForeArm
							{
								OFFSET 29.732449 -0.000008 0.000000
								CHANNELS 6 Xposition Yposition Zposition Xrotation Yrotation Zrotation
								JOINT Yihan_28_06:Solving:LeftHand
								{
									OFFSET 23.617275 -0.000008 0.000000
									CHANNELS 6 Xposition Yposition Zposition Xrotation Yrotation Zrotation
									JOINT Yihan_28_06:Solving:LeftHandThumb1
									{
										OFFSET 3.546165 2.953053 -2.636890
										CHANNELS 6 Xposition Yposition Zposition Xrotation Yrotation Zrotation
										End Site
										{
											OFFSET 5.198463 0.000000 -5.246530
										}
									}
									JOINT Yihan_28_06:Solving:LeftHandMiddle1
									{
										OFFSET 9.456436 -0.000004 0.060618
										CHANNELS 6 Xposition Yposition Zposition Xrotation Yrotation Zrotation
										End Site
										{
											OFFSET 7.385803 -0.000004 0.000000
										}
									}
								}
							}
						}
					}
				}
			}
		}
	}
	JOINT Yihan_28_06:Solving:RightUpLeg
	{
		OFFSET -12.221851 0.000000 0.000000
		CHANNELS 6 Xposition Yposition Zposition Xrotation Yrotation Zrotation
		JOINT Yihan_28_06:Solving:RightLeg
		{
			OFFSET 0.000000 44.387260 -0.000006
			CHANNELS 6 Xposition Yposition Zposition Xrotation Yrotation Zrotation
			JOINT Yihan_28_06:Solving:RightFoot
			{
				OFFSET 0.000000 37.410240 -0.000006
				CHANNELS 6 Xposition Yposition Zposition Xrotation Yrotation Zrotation
				JOINT Yihan_28_06:Solving:RightForeFoot
				{
					OFFSET 0.000000 4.107742 -0.000000
					CHANNELS 6 Xposition Yposition Zposition Xrotation Yrotation Zrotation
					JOINT Yihan_28_06:Solving:RightToeBase
					{
						OFFSET 0.000000 0.000000 -16.087208
						CHANNELS 6 Xposition Yposition Zposition Xrotation Yrotation Zrotation
						JOINT Yihan_28_06:Solving:RightToeBaseEnd
						{
							OFFSET 0.000000 0.000000 -3.506769
							CHANNELS 6 Xposition Yposition Zposition Xrotation Yrotation Zrotation
							End Site
							{
								OFFSET 0.000000 -3.506767 0.000000
							}
						}
					}
				}
			}
		}
	}
	JOINT Yihan_28_06:Solving:LeftUpLeg
	{
		OFFSET 12.221851 0.000000 0.000000
		CHANNELS 6 Xposition Yposition Zposition Xrotation Yrotation Zrotation
		JOINT Yihan_28_06:Solving:LeftLeg
		{
			OFFSET 0.000000 44.387260 -0.000006
			CHANNELS 6 Xposition Yposition Zposition Xrotation Yrotation Zrotation
			JOINT Yihan_28_06:Solving:LeftFoot
			{
				OFFSET 0.000000 37.410240 -0.000006
				CHANNELS 6 Xposition Yposition Zposition Xrotation Yrotation Zrotation
				JOINT Yihan_28_06:Solving:LeftForeFoot
				{
					OFFSET 0.000000 4.107742 -0.000000
					CHANNELS 6 Xposition Yposition Zposition Xrotation Yrotation Zrotation
					JOINT Yihan_28_06:Solving:LeftToeBase
					{
						OFFSET 0.000000 0.000000 -16.087208
						CHANNELS 6 Xposition Yposition Zposition Xrotation Yrotation Zrotation
						JOINT Yihan_28_06:Solving:LeftToeBaseEnd
						{
							OFFSET 0.000000 0.000000 -3.932585
							CHANNELS 6 Xposition Yposition Zposition Xrotation Yrotation Zrotation
							End Site
							{
								OFFSET 0.000000 -3.932587 0.000000
							}
						}
					}
				}
			}
		}
	}
}
MOTION
Frames: 4
Frame Time: 0.041667
13.038620 -50.256058 -89.218094 84.872866 -5.020761 2.314692 0.000003 -10.933656 1.754040 14.140751 0.547175 0.572557 -0.000004 -9.267549 1.634104 -0.107636 -0.025596 0.014685 -0.000003 -9.374712 0.820178 -1.284218 -2.462160 -0.138924 0.000001 -9.410515 0.000004 0.451954 0.078873 -0.386783 -0.000005 -12.099243 -1.209924 -9.884669 -3.549370 -0.975916 0.000002 -7.349780 -0.643020 2.103515 -0.782712 -2.936675 -0.000002 -7.265773 -1.281133 8.085417 0.508946 -3.626819 -0.000001 -9.728096 -0.000001 -0.000003 0.000000 -0.000001 -0.000001 -8.642269 -5.270933 -0.000008 13.809152 5.471329 -17.619333 -0.000004 0.000003 -6.546488 -47.101186 -75.748048 -29.732454 -0.000004 0.000001 13.866575 -25.275339 6.016639 -23.617298 -0.000011 -0.000006 0.782064 4.690641 -9.476623 -3.546133 2.953045 -2.636889 0.000005 -0.000002 0.000002 -9.456415 -0.000003 0.060617 0.000004 -0.000002 -0.000002 -0.000001 -8.642269 -5.270933 -0.000010 -11.843061 -5.853242 17.619333 0.000002 0.000002 15.814721 53.873592 57.161874 29.732456 -0.000009 -0.000005 7.267322 27.931278 -3.418321 23.617281 -0.000022 -0.000004 -0.780173 -11.353590 -3.956921 3.546159 2.953063 -2.636889 -0.000013 0.000007 0.000002 9.456451 0.000003 0.060622 -0.000006 0.000001 0.000000 -12.221850 0.000020 -0.000008 -15.593855 5.344579 -1.386783 -0.000001 44.387264 -0.000009 43.145977 0.000001 0.000003 -0.000000 37.410259 -0.000010 -6.661034 17.263414 1.034766 0.000001 4.107735 0.000006 0.000005 0.000002 -0.000000 0.000000 0.000010 -16.087206 6.831596 -0.000001 0.000000 0.000003 -0.000007 -3.506767 0.000001 -0.000003 -0.000000 12.221859 0.000016 -0.000009 13.850667 -6.299138 -2.945127 0.000003 44.387260 -0.000002 -2.812935 -0.000000 0.000000 -0.000000 37.410236 -0.000010 -4.645938 2.275207 12.671374 0.000003 4.107742 -0.000000 -0.000000 -0.000001 -0.000001 -0.000001 0.000010 -16.087210 -4.727168 -0.000000 -0.000000 0.000001 -0.000008 -3.932584 -0.000001 -0.000000 0.000001 
12.983587 -50.099354 -89.206482 84.991910 -5.384678 2.283096 0.000001 -10.933672 1.754042 14.223798 0.575854 0.670719 -0.000001 -9.267529 1.634112 -0.101918 -0.020787 0.013154 0.000000 -9.374701 0.820191 -1.300521 -2.433950 -0.162947 0.000000 -9.410505 -0.000011 0.444136 0.087642 -0.385419 -0.000001 -12.099237 -1.209918 -9.906949 -3.493147 -0.942351 -0.000001 -7.349814 -0.643030 2.109392 -0.612913 -2.919366 0.000000 -7.265783 -1.281171 8.125020 0.517197 -3.629183 -0.000009 -9.728035 0.000013 -0.000001 -0.000001 -0.000001 -0.000003 -8.642300 -5.270922 -0.000011 13.731029 5.497936 -17.619335 0.000017 0.000008 -6.551103 -46.786055 -75.486527 -29.732466 -0.000006 0.000001 14.592364 -25.138667 6.310829 -23.617296 -0.000021 0.000001 0.720076 4.672712 -8.770434 -3.546182 2.953041 -2.636880 -0.000001 0.000005 -0.000001 -9.456424 -0.000003 0.060619 0.000003 -0.000002 -0.000004 -0.000001 -8.642300 -5.270922 -0.000007 -11.776499 -5.922943 17.619329 -0.000001 0.000010 15.090420 53.307328 57.144528 29.732441 -0.000026 -0.000025 7.718312 27.940376 -3.633494 23.617290 -0.000006 0.000006 -0.756277 -11.485370 -3.792704 3.546133 2.953039 -2.636864 -0.000011 -0.000003 -0.000003 9.456432 -0.000002 0.060633 -0.000017 -0.000002 -0.000005 -12.221851 0.000012 -0.000006 -15.829411 5.177885 -1.346203 0.000000 44.387245 -0.000004 42.075932 0.000001 0.000002 -0.000001 37.410236 -0.000019 -6.853334 17.592663 1.236761 -0.000001 4.107742 0.000006 0.000003 0.000003 0.000000 -0.000001 0.000005 -16.087215 6.925402 -0.000004 -0.000000 -0.000000 0.000000 -3.506778 0.000002 0.000001 0.000001 12.221851 0.000005 -0.000003 13.706035 -6.152813 -3.028954 0.000001 44.387253 -0.000007 -2.657998 -0.000000 0.000000 0.000002 37.410248 -0.000003 -4.782269 2.429874 12.688458 0.000003 4.107742 -0.000001 -0.000000 -0.000001 0.000002 0.000003 0.000023 -16.087206 -4.574669 -0.000000 0.000000 0.000001 0.000000 -3.932586 0.000001 -0.000000 0.000001 
12.965244 -49.886005 -89.193726 85.014197 -5.660960 2.213846 0.000001 -10.933694 1.754034 14.297564 0.618775 0.709504 0.000001 -9.267564 1.634115 -0.083638 -0.026903 0.027181 -0.000002 -9.374697 0.820178 -1.239416 -2.475869 -0.128251 0.000003 -9.410519 0.000009 0.467329 0.078997 -0.355055 0.000001 -12.099234 -1.209918 -9.946378 -3.450145 -0.906088 0.000001 -7.349787 -0.643026 2.095107 -0.449512 -2.912499 -0.000000 -7.265771 -1.281161 8.153569 0.525229 -3.616119 -0.000000 -9.728088 0.000008 -0.000002 -0.000000 -0.000001 0.000001 -8.642288 -5.270923 -0.000007 13.666662 5.502870 -17.619335 0.000000 -0.000005 -6.544073 -46.440270 -75.211461 -29.732458 -0.000005 -0.000008 15.382570 -25.051215 6.644490 -23.617290 -0.000022 0.000001 0.676104 4.690111 -8.212340 -3.546158 2.953046 -2.636883 -0.000006 0.000003 0.000000 -9.456427 0.000003 0.060622 -0.000003 0.000001 0.000002 -0.000001 -8.642288 -5.270924 -0.000007 -11.717499 -5.988417 17.619337 0.000019 0.000004 14.165030 52.535845 57.306961 29.732450 -0.000014 -0.000010 7.994959 28.136006 -3.789184 23.617254 -0.000008 -0.000001 -0.706021 -11.856221 -3.432328 3.546166 2.953049 -2.636893 -0.000004 0.000007 0.000002 9.456463 0.000003 0.060608 0.000003 0.000001 0.000004 -12.221852 0.000003 -0.000017 -15.905905 4.885201 -1.270584 0.000000 44.387257 -0.000002 40.894672 0.000001 0.000002 -0.000001 37.410271 -0.000004 -7.049839 17.852192 1.443946 -0.000003 4.107742 0.000010 0.000001 -0.000002 0.000000 -0.000001 -0.000010 -16.087208 6.851069 -0.000005 0.000002 0.000001 0.000008 -3.506773 0.000001 -0.000002 -0.000000 12.221855 -0.000007 -0.000016 13.755833 -6.144718 -3.033566 -0.000002 44.387283 -0.000007 -2.592704 0.000002 0.000000 0.000007 37.410240 0.000009 -4.863140 2.649283 12.621821 0.000005 4.107742 -0.000004 -0.000000 -0.000001 0.000000 -0.000002 0.000008 -16.087202 -4.542013 0.000000 -0.000000 0.000002 -0.000008 -3.932581 0.000000 0.000001 -0.000001 
12.908618 -49.718681 -89.174004 85.136956 -5.995347 2.151330 0.000003 -10.933666 1.754042 14.393242 0.654453 0.832294 -0.000000 -9.267534 1.634123 -0.080262 -0.020935 0.021593 -0.000001 -9.374700 0.820175 -1.249375 -2.465839 -0.143736 0.000000 -9.410509 -0.000008 0.465070 0.085003 -0.346436 0.000001 -12.099240 -1.209924 -9.996376 -3.416574 -0.889798 -0.000001 -7.349810 -0.643009 2.080505 -0.292002 -2.872666 0.000001 -7.265776 -1.281160 8.163708 0.533155 -3.609025 -0.000001 -9.728043 0.000015 -0.000001 -0.000001 -0.000000 0.000003 -8.642307 -5.270923 -0.000009 13.590955 5.501211 -17.619329 -0.000022 -0.000003 -6.532744 -46.076941 -74.951224 -29.732471 -0.000006 0.000000 15.942420 -25.036122 6.892783 -23.617281 -0.000016 -0.000001 0.632295 4.682713 -7.698794 -3.546144 2.953050 -2.636888 -0.000003 0.000003 -0.000002 -9.456444 0.000008 0.060622 -0.000000 0.000000 0.000000 0.000001 -8.642307 -5.270923 -0.000006 -11.676292 -6.070405 17.619339 -0.000028 0.000010 13.098725 51.651878 57.629721 29.732437 -0.000019 -0.000016 8.266437 28.334299 -3.944479 23.617256 -0.000008 0.000001 -0.651511 -11.947395 -3.144051 3.546186 2.953045 -2.636890 -0.000007 0.000000 -0.000003 9.456461 -0.000010 0.060602 -0.000002 -0.000002 0.000003 -12.221848 0.000025 -0.000007 -16.078513 4.558068 -1.214242 0.000000 44.387257 -0.000004 39.613075 0.000002 0.000002 0.000000 37.410259 -0.000005 -7.184633 18.155331 1.680488 0.000001 4.107742 -0.000005 0.000000 0.000001 0.000000 0.000001 -0.000002 -16.087221 6.804491 -0.000001 -0.000000 0.000002 -0.000007 -3.506776 0.000001 -0.000002 0.000000 12.221853 0.000005 -0.000009 13.622673 -6.069809 -3.076931 -0.000003 44.387249 -0.000010 -2.449975 -0.000003 -0.000000 0.000002 37.410248 -0.000014 -4.990272 2.836036 12.640208 0.000000 4.107742 -0.000005 -0.000000 -0.000001 0.000001 0.000006 0.000014 -16.087214 -4.559601 -0.000002 -0.000000 0.000002 0.000008 -3.932576 0.000000 0.000000 -0.000001 
